<?xml version="1.0" standalone="no"?>
<!DOCTYPE svg PUBLIC "-//W3C//DTD SVG 1.1//EN" "http://www.w3.org/Graphics/SVG/1.1/DTD/svg11.dtd">
<svg width="100%" height="100%" viewBox="0 0 1241 1749" version="1.1" xmlns="http://www.w3.org/2000/svg" xmlns:xlink="http://www.w3.org/1999/xlink" xml:space="preserve" style="fill-rule:evenodd;clip-rule:evenodd;stroke-linecap:round;stroke-linejoin:round;stroke-miterlimit:1.41421;">
    <g transform="matrix(2.89114,0.00330705,-0.00330705,2.89114,-1512.57,-857.982)">
        <path d="M593.093,807.208C588.475,799.961 583.754,791.231 578.968,780.897C555.367,729.928 547.059,571.366 552.943,505.032C557.569,452.872 572.418,419.019 605.178,386.257C627.09,364.342 674.102,327.618 702.225,318.928C710.055,310.13 719.749,305.075 730.647,306.864C767.8,312.964 831.538,326.61 905.808,428.498C942.815,479.267 928.95,578.928 920.389,621.302C913.835,653.74 880.398,701.912 869.571,685.801C865.332,679.492 863.998,661.857 863.258,639.425C844.203,683.868 813.046,717.275 776.069,730.971C776.597,748.227 776.616,766.411 780.9,776.277C784.832,785.332 800.489,792.222 810.741,798.018C813.09,797.477 815.512,797.204 818.034,797.293C840.892,798.102 897.901,804.886 908.024,820.382C920.85,840.014 925.521,872.209 902.705,876.127C874.615,880.95 811.739,889.861 745.686,889.947C669.94,890.045 590.362,880.631 560.135,875.535C537.384,871.7 546.352,831.917 563.19,818.895C569.154,814.283 580.229,810.379 593.093,807.208ZM702.98,761.144C701.938,764.206 700.71,766.989 699.311,769.437C697.247,773.049 694.375,776.352 691.079,779.389C697.268,775.008 700.875,768.576 702.98,761.144ZM616.367,645.428C637.353,691.881 670.523,725.638 705.937,732.757L705.937,732.71C668.456,720.82 636.507,688.836 616.367,645.428Z" style="fill:black;stroke-width:3.6px;stroke:black;"/>
        <g transform="matrix(1,0,0,1,0.082861,-3.68731)">
            <g transform="matrix(1.12518,0,0,1.05594,-104.716,-60.7901)">
                <path d="M725.28,718.815C713.748,732.607 729.715,782.181 707.175,799.167C701.173,803.69 669.555,819.903 677.586,826.914C685.617,833.924 731.434,841.329 755.361,841.228C777.848,841.133 815.875,833.81 821.15,826.308C826.426,818.805 792.738,810.26 787.012,796.212C779.548,777.896 786.652,729.311 776.363,716.411C766.074,703.512 736.214,705.737 725.28,718.815Z" style="fill:url(#_Linear1);stroke-width:1.19px;stroke:rgb(255,168,168);"/>
            </g>
            <g transform="matrix(0.894214,0,0,1,76.8007,0)">
                <ellipse cx="739.857" cy="541.443" rx="162.039" ry="200.027" style="fill:url(#_Radial2);stroke-width:1.44px;stroke:rgb(255,167,167);"/>
            </g>
            <path d="M702.142,322.616C709.972,313.817 719.666,308.762 730.564,310.551C767.717,316.651 831.455,330.297 905.725,432.185C942.733,482.954 928.867,582.616 920.306,624.989C913.753,657.428 880.315,705.599 869.489,689.488C858.662,673.377 866.788,583.416 855.346,528.324C847.942,492.675 818.239,449.139 801.498,438.463C770.358,418.603 688.29,422.913 682.809,395.586C682.52,394.148 682.283,392.671 682.096,391.16C662.431,423.147 633.564,457.769 621.142,483.091C613.032,499.624 602.727,525.986 593.59,548.766C596.039,642.556 648.655,725.94 707.049,736.674C707.023,751.406 704.219,764.393 699.228,773.125C688.841,791.296 658.021,801.682 655.433,809.545C641.844,850.831 611.874,855.825 578.886,784.584C555.284,733.616 546.976,575.053 552.86,508.72C557.486,456.559 572.335,422.706 605.095,389.944C627.008,368.03 674.019,331.305 702.142,322.616Z" style="fill:url(#_Radial3);stroke-width:0.51px;stroke:rgb(255,180,0);"/>
            <g transform="matrix(1.00869,0,0,0.820453,-4.74705,143.81)">
                <path d="M660.185,801.032C636.846,802.433 579.672,811.427 562.964,827.313C546.271,843.185 537.38,891.674 559.935,896.349C589.902,902.559 668.794,914.034 743.888,913.914C809.372,913.809 871.706,902.948 899.554,897.07C922.174,892.295 917.543,853.054 904.828,829.126C894.792,810.239 838.274,801.97 815.613,800.984C798.375,800.234 785.904,820.496 768.864,823.209C750.095,826.197 721.115,822.607 703.002,818.911C687.848,815.819 675.624,800.106 660.185,801.032Z" style="fill:url(#_Radial4);stroke-width:0.86px;stroke:rgb(0,82,163);"/>
            </g>
        </g>
    </g>
    <defs>
        <linearGradient id="_Linear1" x1="0" y1="0" x2="1" y2="0" gradientUnits="userSpaceOnUse" gradientTransform="matrix(145.421,0,0,133.435,676.288,774.512)"><stop offset="0%" style="stop-color:rgb(255,204,204);stop-opacity:1"/><stop offset="49%" style="stop-color:rgb(255,183,183);stop-opacity:1"/><stop offset="49%" style="stop-color:rgb(255,183,183);stop-opacity:1"/><stop offset="74%" style="stop-color:rgb(255,196,196);stop-opacity:1"/><stop offset="100%" style="stop-color:rgb(255,200,200);stop-opacity:1"/></linearGradient>
        <radialGradient id="_Radial2" cx="0" cy="0" r="1" gradientUnits="userSpaceOnUse" gradientTransform="matrix(12.6552,155.024,-239.324,15.6221,734.28,524.345)"><stop offset="0%" style="stop-color:rgb(255,204,204);stop-opacity:1"/><stop offset="56%" style="stop-color:rgb(253,200,200);stop-opacity:1"/><stop offset="100%" style="stop-color:rgb(243,185,185);stop-opacity:1"/></radialGradient>
        <radialGradient id="_Radial3" cx="0" cy="0" r="1" gradientUnits="userSpaceOnUse" gradientTransform="matrix(113.982,231.669,-323.55,159.189,675.278,428.512)"><stop offset="0%" style="stop-color:rgb(255,217,0);stop-opacity:1"/><stop offset="100%" style="stop-color:rgb(230,175,26);stop-opacity:1"/></radialGradient>
        <radialGradient id="_Radial4" cx="0" cy="0" r="1" gradientUnits="userSpaceOnUse" gradientTransform="matrix(180.465,-48.1923,9.75861,55.2342,736.636,889.493)"><stop offset="0%" style="stop-color:rgb(0,128,255);stop-opacity:1"/><stop offset="56%" style="stop-color:rgb(0,118,234);stop-opacity:1"/><stop offset="100%" style="stop-color:rgb(0,77,153);stop-opacity:1"/></radialGradient>
    </defs>
</svg>
