<?xml version="1.0" standalone="no"?>
<!DOCTYPE svg PUBLIC "-//W3C//DTD SVG 1.1//EN" "http://www.w3.org/Graphics/SVG/1.1/DTD/svg11.dtd">
<svg width="100%" height="100%" viewBox="0 0 1512 1134" version="1.1" xmlns="http://www.w3.org/2000/svg" xmlns:xlink="http://www.w3.org/1999/xlink" xml:space="preserve" style="fill-rule:evenodd;clip-rule:evenodd;stroke-linecap:round;stroke-linejoin:round;stroke-miterlimit:1.41421;">
    <g transform="matrix(1,0,0,1,446.293,-4.96666)">
        <path d="M600.871,506.335C590.592,522.397 593.636,518.915 583.249,539.17C574.679,489.624 596.576,402.137 617.531,355.872C621.551,346.997 643.399,315.57 671.743,297.303C689.778,285.679 719.689,280.574 751.522,280.367C778.19,280.193 807.909,288.006 820.072,292.92C861.874,309.81 880.065,347.471 883.303,354.723C904.502,402.208 919.704,496.697 893.038,532.137C891.918,525.227 890.966,519.671 890.07,515.116C885.018,600.215 841.309,670.301 783.257,691.803C783.785,709.059 783.803,727.243 788.088,737.109C792.02,746.164 807.677,753.054 817.929,758.85C820.278,758.309 822.699,758.036 825.222,758.125C848.08,758.934 905.089,765.719 915.212,781.214C928.038,800.846 932.709,833.041 909.893,836.959C881.803,841.782 818.927,850.693 752.874,850.779C677.128,850.877 597.55,841.463 567.323,836.367C544.572,832.532 553.54,792.749 570.378,779.727C587.232,766.693 644.902,759.314 668.444,758.165C668.935,758.141 669.422,758.13 669.906,758.133C678.742,750.927 694.061,743.196 698.256,740.229C711.677,730.737 712.965,711.608 713.125,693.542C650.556,673.693 603.401,597.849 600.871,506.335Z" style="fill:black;stroke-width:12.4px;stroke:black;"/>
        <g transform="matrix(1.12518,0,0,1.05594,-97.4449,-103.645)">
            <path d="M725.28,718.815C713.748,732.607 729.715,782.181 707.175,799.167C701.173,803.69 669.555,819.903 677.586,826.914C685.617,833.924 731.434,841.329 755.361,841.228C777.848,841.133 815.875,833.81 821.15,826.308C826.426,818.805 792.738,810.26 787.012,796.212C779.548,777.896 786.652,729.311 776.363,716.411C766.074,703.512 736.214,705.737 725.28,718.815Z" style="fill:url(#_Linear1);stroke-width:3.44px;stroke:rgb(255,210,210);"/>
        </g>
        <g transform="matrix(0.894214,0,0,1,84.0715,-42.8553)">
            <ellipse cx="739.857" cy="541.443" rx="162.039" ry="200.027" style="fill:url(#_Radial2);stroke-width:4.17px;stroke:rgb(244,193,193);"/>
        </g>
        <g transform="matrix(1.00869,0,0,0.820453,2.52375,100.955)">
            <path d="M660.185,801.032C636.846,802.433 579.672,811.427 562.964,827.313C546.271,843.185 537.38,891.674 559.935,896.349C589.902,902.559 668.794,914.034 743.888,913.914C809.372,913.809 871.706,902.948 899.554,897.07C922.174,892.295 917.543,853.054 904.828,829.126C894.792,810.239 838.274,801.97 815.613,800.984C798.375,800.234 785.904,820.496 768.864,823.209C750.095,826.197 721.115,822.607 703.002,818.911C687.848,815.819 675.624,800.106 660.185,801.032Z" style="fill:url(#_Radial3);stroke-width:2.49px;stroke:rgb(145,4,0);"/>
        </g>
        <path d="M617.531,355.872C621.551,346.997 643.399,315.57 671.743,297.303C689.778,285.679 719.689,280.574 751.522,280.367C778.19,280.193 807.909,288.006 820.072,292.92C861.874,309.81 880.065,347.471 883.303,354.723C904.502,402.208 919.704,496.697 893.038,532.137C883.802,475.146 885.939,510.295 837.971,439.093C848.161,535.295 663.15,520.56 647.37,516.125C631.461,511.654 692.415,497.371 670.258,443.891C654.426,483.547 632.911,457.141 616.013,483.026C587.2,527.161 597.008,512.339 583.249,539.17C574.679,489.624 596.576,402.137 617.531,355.872Z" style="fill:url(#_Radial4);stroke-width:4.17px;stroke:rgb(145,0,0);"/>
    </g>
    <g transform="matrix(1,0,0,1,-425.902,-39.1947)">
        <path d="M593.093,807.208C588.475,799.961 583.754,791.231 578.968,780.897C555.367,729.928 547.059,571.366 552.943,505.032C557.569,452.872 572.418,419.019 605.178,386.257C627.09,364.342 674.102,327.618 702.225,318.928C710.055,310.13 719.749,305.075 730.647,306.864C767.8,312.964 831.538,326.61 905.808,428.498C942.815,479.267 928.95,578.928 920.389,621.302C913.835,653.74 880.398,701.912 869.571,685.801C865.332,679.492 863.998,661.857 863.258,639.425C844.203,683.868 813.046,717.275 776.069,730.971C776.597,748.227 776.616,766.411 780.9,776.277C784.832,785.332 800.489,792.222 810.741,798.018C813.09,797.477 815.512,797.204 818.034,797.293C840.892,798.102 897.901,804.886 908.024,820.382C920.85,840.014 925.521,872.209 902.705,876.127C874.615,880.95 811.739,889.861 745.686,889.947C669.94,890.045 590.362,880.631 560.135,875.535C537.384,871.7 546.352,831.917 563.19,818.895C569.154,814.283 580.229,810.379 593.093,807.208ZM702.98,761.144C701.938,764.206 700.71,766.989 699.311,769.437C697.247,773.049 694.375,776.352 691.079,779.389C697.268,775.008 700.875,768.576 702.98,761.144ZM616.367,645.428C637.353,691.881 670.523,725.638 705.937,732.757L705.937,732.71C668.456,720.82 636.507,688.836 616.367,645.428Z" style="fill:black;stroke-width:10.42px;stroke:black;"/>
        <g transform="matrix(1,0,0,1,0.082861,-3.68731)">
            <g transform="matrix(1.12518,0,0,1.05594,-104.716,-60.7901)">
                <path d="M725.28,718.815C713.748,732.607 729.715,782.181 707.175,799.167C701.173,803.69 669.555,819.903 677.586,826.914C685.617,833.924 731.434,841.329 755.361,841.228C777.848,841.133 815.875,833.81 821.15,826.308C826.426,818.805 792.738,810.26 787.012,796.212C779.548,777.896 786.652,729.311 776.363,716.411C766.074,703.512 736.214,705.737 725.28,718.815Z" style="fill:url(#_Linear5);stroke-width:3.44px;stroke:rgb(255,168,168);"/>
            </g>
            <g transform="matrix(0.894214,0,0,1,76.8007,0)">
                <ellipse cx="739.857" cy="541.443" rx="162.039" ry="200.027" style="fill:url(#_Radial6);stroke-width:4.17px;stroke:rgb(255,167,167);"/>
            </g>
            <path d="M702.142,322.616C709.972,313.817 719.666,308.762 730.564,310.551C767.717,316.651 831.455,330.297 905.725,432.185C942.733,482.954 928.867,582.616 920.306,624.989C913.753,657.428 880.315,705.599 869.489,689.488C858.662,673.377 866.788,583.416 855.346,528.324C847.942,492.675 818.239,449.139 801.498,438.463C770.358,418.603 688.29,422.913 682.809,395.586C682.52,394.148 682.283,392.671 682.096,391.16C662.431,423.147 633.564,457.769 621.142,483.091C613.032,499.624 602.727,525.986 593.59,548.766C596.039,642.556 648.655,725.94 707.049,736.674C707.023,751.406 704.219,764.393 699.228,773.125C688.841,791.296 658.021,801.682 655.433,809.545C641.844,850.831 611.874,855.825 578.886,784.584C555.284,733.616 546.976,575.053 552.86,508.72C557.486,456.559 572.335,422.706 605.095,389.944C627.008,368.03 674.019,331.305 702.142,322.616Z" style="fill:url(#_Radial7);stroke-width:1.47px;stroke:rgb(255,180,0);"/>
            <g transform="matrix(1.00869,0,0,0.820453,-4.74705,143.81)">
                <path d="M660.185,801.032C636.846,802.433 579.672,811.427 562.964,827.313C546.271,843.185 537.38,891.674 559.935,896.349C589.902,902.559 668.794,914.034 743.888,913.914C809.372,913.809 871.706,902.948 899.554,897.07C922.174,892.295 917.543,853.054 904.828,829.126C894.792,810.239 838.274,801.97 815.613,800.984C798.375,800.234 785.904,820.496 768.864,823.209C750.095,826.197 721.115,822.607 703.002,818.911C687.848,815.819 675.624,800.106 660.185,801.032Z" style="fill:url(#_Radial8);stroke-width:2.49px;stroke:rgb(0,82,163);"/>
            </g>
        </g>
    </g>
    <g transform="matrix(1,0,0,1,21.0343,-48.0577)">
        <path d="M605.763,451.188C589.473,456.64 562.388,455.555 558.762,453.208C554.829,450.662 581.767,439.118 586.046,434.387C591.64,428.203 588.808,403.771 599.431,392.479C611.388,379.769 628.465,376.567 637.387,367.398C650.794,353.62 651.339,340.157 664.473,335.34C682.421,328.757 720.84,327.57 745.073,327.904C766.897,328.204 789.885,328.561 809.867,337.341C830.404,346.365 852.056,363.668 868.29,382.045C894.731,411.978 901.876,453.785 900.797,461.2C898.915,474.124 889.062,492.692 888.614,501.948C888.032,513.968 884.202,537.388 883.079,541.14C882.184,544.134 881.246,543.855 880.249,541.232C879.055,625.237 834.718,693.031 788.18,732.032C788.819,748.968 788.952,766.612 794.335,776.277C795.669,778.673 798.056,780.917 801.089,783.029C802.562,781.302 804.228,780.041 806.398,779.966C824.429,779.343 882.917,766.369 898.834,789.842C913.846,811.98 916.232,860.5 902.705,873.423C881.971,893.232 811.739,889.844 745.686,889.946C669.94,890.064 578.693,897.341 560.135,872.716C553.216,863.535 557.389,802.075 575.176,786.022C600.705,762.981 647.585,778.325 667.898,779.214C670.569,779.331 673.083,780.088 675.518,781.172C677.024,780.473 678.256,779.873 679.12,779.397C695.296,770.477 697.729,753.047 698.134,735.986C646.11,702.023 602.578,626.323 595.524,537.756C593.058,506.792 597.03,477.417 605.763,451.188ZM855.147,424.31C852.862,416.366 850.661,410.207 849.312,411.959C849.176,412.136 849.066,412.377 848.978,412.678C851.131,416.446 853.189,420.326 855.147,424.31Z" style="fill:black;stroke-width:12.03px;stroke:black;"/>
        <g>
            <g transform="matrix(1.44312,0,0,1.05594,-341.417,-64.4775)">
                <path d="M725.28,718.815C713.748,732.607 729.715,782.181 707.175,799.167C701.173,803.69 669.555,819.903 677.586,826.914C685.617,833.924 731.434,841.329 755.361,841.228C777.848,841.133 815.875,833.81 821.15,826.308C826.426,818.805 792.738,810.26 787.012,796.212C779.548,777.896 786.652,729.311 776.363,716.411C766.074,703.512 736.214,705.737 725.28,718.815Z" style="fill:url(#_Linear9);stroke-width:2.97px;stroke:rgb(117,46,23);"/>
            </g>
            <g transform="matrix(0.87865,0,0,1,87.8242,-3.68731)">
                <path d="M739.857,341.416C829.289,341.416 901.896,431.045 901.896,541.443C901.896,629.401 847.934,699.96 792.661,738.904C792.661,738.904 792.66,738.904 792.66,738.904C778.6,748.811 719.066,752.166 703.245,744.3C640.275,712.994 586.235,634.289 577.818,541.443C567.843,431.394 650.425,341.416 739.857,341.416Z" style="fill:url(#_Radial10);stroke-width:4.21px;stroke:rgb(107,36,10);"/>
            </g>
            <g transform="matrix(1.00869,0,0,0.98096,-4.66419,-6.56658)">
                <path d="M666.77,801.032C646.632,800.126 600.156,784.484 574.847,807.972C557.212,824.337 553.076,886.99 559.935,896.349C578.334,921.451 668.794,914.034 743.888,913.914C809.372,913.809 878.999,917.263 899.554,897.07C912.965,883.896 910.6,834.434 895.717,811.866C879.937,787.938 821.953,801.164 804.077,801.798C797.119,802.045 795.388,814.933 788.465,815.674C770.398,817.61 715.957,815.853 695.675,813.413C685.268,812.161 677.241,801.504 666.77,801.032Z" style="fill:url(#_Radial11);stroke-width:2.3px;stroke:rgb(0,125,33);"/>
            </g>
            <path d="M586.046,434.387C591.64,428.203 588.808,403.771 599.431,392.479C611.388,379.769 628.465,376.567 637.387,367.398C650.794,353.62 651.339,340.157 664.473,335.34C682.421,328.757 720.84,327.57 745.073,327.904C766.897,328.204 789.885,328.561 809.867,337.341C830.404,346.365 852.056,363.668 868.29,382.045C894.731,411.978 901.876,453.785 900.797,461.2C898.915,474.124 889.062,492.692 888.614,501.948C888.032,513.968 884.202,537.388 883.079,541.14C878.215,557.402 872.097,477.092 862.097,449.209C858.91,440.324 852.182,408.231 849.312,411.959C848.466,413.058 848.606,416.676 849.055,421.379C850.127,432.625 837.183,446.932 832.498,451.004C785.896,491.517 779.596,464.003 762.574,453.419C716.873,425.002 686.102,487.016 668.18,479.54C650.258,472.064 664.797,413.541 655.041,408.562C645.284,403.582 625.687,442.222 609.641,449.663C594.218,456.815 562.694,455.754 558.762,453.208C554.829,450.662 581.767,439.118 586.046,434.387Z" style="fill:rgb(50,0,0);stroke-width:4.17px;stroke:black;"/>
        </g>
    </g>
    <g transform="matrix(1,0,0,1,-24.8385,4.31548)">
        <text x="230.269px" y="935.428px" style="font-family:'CMUTypewriterVariable';font-size:100px;fill:black;">Alice</text>
    </g>
    <g transform="matrix(1,0,0,1,433.786,4.31548)">
        <text x="230.269px" y="935.428px" style="font-family:'CMUTypewriterVariable';font-size:100px;fill:black;">Bob</text>
    </g>
    <g transform="matrix(1,0,0,1,874.967,-2.58452)">
        <text x="230.269px" y="935.428px" style="font-family:'CMUTypewriterVariable';font-size:100px;fill:black;">Ev<tspan x="352.769px " y="935.428px ">e</tspan></text>
    </g>
    <defs>
        <linearGradient id="_Linear1" x1="0" y1="0" x2="1" y2="0" gradientUnits="userSpaceOnUse" gradientTransform="matrix(145.421,0,0,133.435,676.288,774.512)"><stop offset="0%" style="stop-color:rgb(255,229,229);stop-opacity:1"/><stop offset="49%" style="stop-color:rgb(255,210,210);stop-opacity:1"/><stop offset="49%" style="stop-color:rgb(255,210,210);stop-opacity:1"/><stop offset="74%" style="stop-color:rgb(255,217,217);stop-opacity:1"/><stop offset="100%" style="stop-color:rgb(255,219,219);stop-opacity:1"/></linearGradient>
        <radialGradient id="_Radial2" cx="0" cy="0" r="1" gradientUnits="userSpaceOnUse" gradientTransform="matrix(12.6552,155.024,-239.324,15.6221,734.28,524.345)"><stop offset="0%" style="stop-color:rgb(255,230,230);stop-opacity:1"/><stop offset="56%" style="stop-color:rgb(254,225,225);stop-opacity:1"/><stop offset="100%" style="stop-color:rgb(250,206,206);stop-opacity:1"/></radialGradient>
        <radialGradient id="_Radial3" cx="0" cy="0" r="1" gradientUnits="userSpaceOnUse" gradientTransform="matrix(180.465,-48.1923,9.75861,55.2342,736.636,889.493)"><stop offset="0%" style="stop-color:rgb(146,9,0);stop-opacity:1"/><stop offset="56%" style="stop-color:rgb(129,8,0);stop-opacity:1"/><stop offset="100%" style="stop-color:rgb(63,2,0);stop-opacity:1"/></radialGradient>
        <radialGradient id="_Radial4" cx="0" cy="0" r="1" gradientUnits="userSpaceOnUse" gradientTransform="matrix(146.01,79.433,-68.1497,125.269,725.053,360.381)"><stop offset="0%" style="stop-color:rgb(255,46,46);stop-opacity:1"/><stop offset="42%" style="stop-color:rgb(229,32,32);stop-opacity:1"/><stop offset="100%" style="stop-color:rgb(173,0,0);stop-opacity:1"/></radialGradient>
        <linearGradient id="_Linear5" x1="0" y1="0" x2="1" y2="0" gradientUnits="userSpaceOnUse" gradientTransform="matrix(145.421,0,0,133.435,676.288,774.512)"><stop offset="0%" style="stop-color:rgb(255,204,204);stop-opacity:1"/><stop offset="49%" style="stop-color:rgb(255,183,183);stop-opacity:1"/><stop offset="49%" style="stop-color:rgb(255,183,183);stop-opacity:1"/><stop offset="74%" style="stop-color:rgb(255,196,196);stop-opacity:1"/><stop offset="100%" style="stop-color:rgb(255,200,200);stop-opacity:1"/></linearGradient>
        <radialGradient id="_Radial6" cx="0" cy="0" r="1" gradientUnits="userSpaceOnUse" gradientTransform="matrix(12.6552,155.024,-239.324,15.6221,734.28,524.345)"><stop offset="0%" style="stop-color:rgb(255,204,204);stop-opacity:1"/><stop offset="56%" style="stop-color:rgb(253,200,200);stop-opacity:1"/><stop offset="100%" style="stop-color:rgb(243,185,185);stop-opacity:1"/></radialGradient>
        <radialGradient id="_Radial7" cx="0" cy="0" r="1" gradientUnits="userSpaceOnUse" gradientTransform="matrix(113.982,231.669,-323.55,159.189,675.278,428.512)"><stop offset="0%" style="stop-color:rgb(255,217,0);stop-opacity:1"/><stop offset="100%" style="stop-color:rgb(230,175,26);stop-opacity:1"/></radialGradient>
        <radialGradient id="_Radial8" cx="0" cy="0" r="1" gradientUnits="userSpaceOnUse" gradientTransform="matrix(180.465,-48.1923,9.75861,55.2342,736.636,889.493)"><stop offset="0%" style="stop-color:rgb(0,128,255);stop-opacity:1"/><stop offset="56%" style="stop-color:rgb(0,118,234);stop-opacity:1"/><stop offset="100%" style="stop-color:rgb(0,77,153);stop-opacity:1"/></radialGradient>
        <linearGradient id="_Linear9" x1="0" y1="0" x2="1" y2="0" gradientUnits="userSpaceOnUse" gradientTransform="matrix(145.421,0,0,133.435,676.288,774.512)"><stop offset="0%" style="stop-color:rgb(155,130,121);stop-opacity:1"/><stop offset="49%" style="stop-color:rgb(180,66,26);stop-opacity:1"/><stop offset="49%" style="stop-color:rgb(180,66,26);stop-opacity:1"/><stop offset="74%" style="stop-color:rgb(137,70,42);stop-opacity:1"/><stop offset="100%" style="stop-color:rgb(122,71,48);stop-opacity:1"/></linearGradient>
        <radialGradient id="_Radial10" cx="0" cy="0" r="1" gradientUnits="userSpaceOnUse" gradientTransform="matrix(20.7046,155.365,-239.85,25.5586,734.28,524.345)"><stop offset="0%" style="stop-color:rgb(145,71,34);stop-opacity:1"/><stop offset="56%" style="stop-color:rgb(140,65,33);stop-opacity:1"/><stop offset="100%" style="stop-color:rgb(121,40,29);stop-opacity:1"/></radialGradient>
        <radialGradient id="_Radial11" cx="0" cy="0" r="1" gradientUnits="userSpaceOnUse" gradientTransform="matrix(180.465,-48.1923,9.75861,55.2342,736.636,889.493)"><stop offset="0%" style="stop-color:rgb(134,194,0);stop-opacity:1"/><stop offset="56%" style="stop-color:rgb(108,177,0);stop-opacity:1"/><stop offset="100%" style="stop-color:rgb(4,111,0);stop-opacity:1"/></radialGradient>
    </defs>
</svg>
