<?xml version="1.0" standalone="no"?>
<!DOCTYPE svg PUBLIC "-//W3C//DTD SVG 1.1//EN" "http://www.w3.org/Graphics/SVG/1.1/DTD/svg11.dtd">
<svg width="100%" height="100%" viewBox="0 0 1241 1749" version="1.1" xmlns="http://www.w3.org/2000/svg" xmlns:xlink="http://www.w3.org/1999/xlink" xml:space="preserve" style="fill-rule:evenodd;clip-rule:evenodd;stroke-linecap:round;stroke-linejoin:round;stroke-miterlimit:1.41421;">
    <g transform="matrix(3.15504,0,0,2.98302,-1696.62,-943.974)">
        <path d="M605.763,451.188C589.473,456.64 562.388,455.555 558.762,453.208C554.829,450.662 581.767,439.118 586.046,434.387C591.64,428.203 588.808,403.771 599.431,392.479C611.388,379.769 628.465,376.567 637.387,367.398C650.794,353.62 651.339,340.157 664.473,335.34C682.421,328.757 720.84,327.57 745.073,327.904C766.897,328.204 789.885,328.561 809.867,337.341C830.404,346.365 852.056,363.668 868.29,382.045C894.731,411.978 901.876,453.785 900.797,461.2C898.915,474.124 889.062,492.692 888.614,501.948C888.032,513.968 884.202,537.388 883.079,541.14C882.184,544.134 881.246,543.855 880.249,541.232C879.055,625.237 834.718,693.031 788.18,732.032C788.819,748.968 788.952,766.612 794.335,776.277C795.669,778.673 798.056,780.917 801.089,783.029C802.562,781.302 804.228,780.041 806.398,779.966C824.429,779.343 882.917,766.369 898.834,789.842C913.846,811.98 916.232,860.5 902.705,873.423C881.971,893.232 811.739,889.844 745.686,889.946C669.94,890.064 578.693,897.341 560.135,872.716C553.216,863.535 557.389,802.075 575.176,786.022C600.705,762.981 647.585,778.325 667.898,779.214C670.569,779.331 673.083,780.088 675.518,781.172C677.024,780.473 678.256,779.873 679.12,779.397C695.296,770.477 697.729,753.047 698.134,735.986C646.11,702.023 602.578,626.323 595.524,537.756C593.058,506.792 597.03,477.417 605.763,451.188ZM855.147,424.31C852.862,416.366 850.661,410.207 849.312,411.959C849.176,412.136 849.066,412.377 848.978,412.678C851.131,416.446 853.189,420.326 855.147,424.31Z" style="fill:black;stroke-width:3.92px;stroke:black;"/>
        <g>
            <g transform="matrix(1.44312,0,0,1.05594,-341.417,-64.4775)">
                <path d="M725.28,718.815C713.748,732.607 729.715,782.181 707.175,799.167C701.173,803.69 669.555,819.903 677.586,826.914C685.617,833.924 731.434,841.329 755.361,841.228C777.848,841.133 815.875,833.81 821.15,826.308C826.426,818.805 792.738,810.26 787.012,796.212C779.548,777.896 786.652,729.311 776.363,716.411C766.074,703.512 736.214,705.737 725.28,718.815Z" style="fill:url(#_Linear1);stroke-width:0.96px;stroke:rgb(117,46,23);"/>
            </g>
            <g transform="matrix(0.87865,0,0,1,87.8242,-3.68731)">
                <path d="M739.857,341.416C829.289,341.416 901.896,431.045 901.896,541.443C901.896,629.401 847.934,699.96 792.661,738.904C792.661,738.904 792.66,738.904 792.66,738.904C778.6,748.811 719.066,752.166 703.245,744.3C640.275,712.994 586.235,634.289 577.818,541.443C567.843,431.394 650.425,341.416 739.857,341.416Z" style="fill:url(#_Radial2);stroke-width:1.37px;stroke:rgb(107,36,10);"/>
            </g>
            <g transform="matrix(1.00869,0,0,0.98096,-4.66419,-6.56658)">
                <path d="M666.77,801.032C646.632,800.126 600.156,784.484 574.847,807.972C557.212,824.337 553.076,886.99 559.935,896.349C578.334,921.451 668.794,914.034 743.888,913.914C809.372,913.809 878.999,917.263 899.554,897.07C912.965,883.896 910.6,834.434 895.717,811.866C879.937,787.938 821.953,801.164 804.077,801.798C797.119,802.045 795.388,814.933 788.465,815.674C770.398,817.61 715.957,815.853 695.675,813.413C685.268,812.161 677.241,801.504 666.77,801.032Z" style="fill:url(#_Radial3);stroke-width:0.75px;stroke:rgb(0,125,33);"/>
            </g>
            <path d="M586.046,434.387C591.64,428.203 588.808,403.771 599.431,392.479C611.388,379.769 628.465,376.567 637.387,367.398C650.794,353.62 651.339,340.157 664.473,335.34C682.421,328.757 720.84,327.57 745.073,327.904C766.897,328.204 789.885,328.561 809.867,337.341C830.404,346.365 852.056,363.668 868.29,382.045C894.731,411.978 901.876,453.785 900.797,461.2C898.915,474.124 889.062,492.692 888.614,501.948C888.032,513.968 884.202,537.388 883.079,541.14C878.215,557.402 872.097,477.092 862.097,449.209C858.91,440.324 852.182,408.231 849.312,411.959C848.466,413.058 848.606,416.676 849.055,421.379C850.127,432.625 837.183,446.932 832.498,451.004C785.896,491.517 779.596,464.003 762.574,453.419C716.873,425.002 686.102,487.016 668.18,479.54C650.258,472.064 664.797,413.541 655.041,408.562C645.284,403.582 625.687,442.222 609.641,449.663C594.218,456.815 562.694,455.754 558.762,453.208C554.829,450.662 581.767,439.118 586.046,434.387Z" style="fill:rgb(50,0,0);stroke-width:1.36px;stroke:black;"/>
        </g>
    </g>
    <defs>
        <linearGradient id="_Linear1" x1="0" y1="0" x2="1" y2="0" gradientUnits="userSpaceOnUse" gradientTransform="matrix(145.421,0,0,133.435,676.288,774.512)"><stop offset="0%" style="stop-color:rgb(155,130,121);stop-opacity:1"/><stop offset="49%" style="stop-color:rgb(180,66,26);stop-opacity:1"/><stop offset="49%" style="stop-color:rgb(180,66,26);stop-opacity:1"/><stop offset="74%" style="stop-color:rgb(137,70,42);stop-opacity:1"/><stop offset="100%" style="stop-color:rgb(122,71,48);stop-opacity:1"/></linearGradient>
        <radialGradient id="_Radial2" cx="0" cy="0" r="1" gradientUnits="userSpaceOnUse" gradientTransform="matrix(20.7046,155.365,-239.85,25.5586,734.28,524.345)"><stop offset="0%" style="stop-color:rgb(145,71,34);stop-opacity:1"/><stop offset="56%" style="stop-color:rgb(140,65,33);stop-opacity:1"/><stop offset="100%" style="stop-color:rgb(121,40,29);stop-opacity:1"/></radialGradient>
        <radialGradient id="_Radial3" cx="0" cy="0" r="1" gradientUnits="userSpaceOnUse" gradientTransform="matrix(180.465,-48.1923,9.75861,55.2342,736.636,889.493)"><stop offset="0%" style="stop-color:rgb(134,194,0);stop-opacity:1"/><stop offset="56%" style="stop-color:rgb(108,177,0);stop-opacity:1"/><stop offset="100%" style="stop-color:rgb(4,111,0);stop-opacity:1"/></radialGradient>
    </defs>
</svg>
