<?xml version="1.0" standalone="no"?>
<!DOCTYPE svg PUBLIC "-//W3C//DTD SVG 1.1//EN" "http://www.w3.org/Graphics/SVG/1.1/DTD/svg11.dtd">
<svg width="100%" height="100%" viewBox="0 0 1241 1749" version="1.1" xmlns="http://www.w3.org/2000/svg" xmlns:xlink="http://www.w3.org/1999/xlink" xml:space="preserve" style="fill-rule:evenodd;clip-rule:evenodd;stroke-linecap:round;stroke-linejoin:round;stroke-miterlimit:1.41421;">
    <g transform="matrix(2.99733,0,0,2.99733,-1597.33,-821.188)">
        <path d="M600.871,506.335C590.592,522.397 593.636,518.915 583.249,539.17C574.679,489.624 596.576,402.137 617.531,355.872C621.551,346.997 643.399,315.57 671.743,297.303C689.778,285.679 719.689,280.574 751.522,280.367C778.19,280.193 807.909,288.006 820.072,292.92C861.874,309.81 880.065,347.471 883.303,354.723C904.502,402.208 919.704,496.697 893.038,532.137C891.918,525.227 890.966,519.671 890.07,515.116C885.018,600.215 841.309,670.301 783.257,691.803C783.785,709.059 783.803,727.243 788.088,737.109C792.02,746.164 807.677,753.054 817.929,758.85C820.278,758.309 822.699,758.036 825.222,758.125C848.08,758.934 905.089,765.719 915.212,781.214C928.038,800.846 932.709,833.041 909.893,836.959C881.803,841.782 818.927,850.693 752.874,850.779C677.128,850.877 597.55,841.463 567.323,836.367C544.572,832.532 553.54,792.749 570.378,779.727C587.232,766.693 644.902,759.314 668.444,758.165C668.935,758.141 669.422,758.13 669.906,758.133C678.742,750.927 694.061,743.196 698.256,740.229C711.677,730.737 712.965,711.608 713.125,693.542C650.556,673.693 603.401,597.849 600.871,506.335Z" style="fill:black;stroke-width:4.14px;stroke:black;"/>
        <g transform="matrix(1.12518,0,0,1.05594,-97.4449,-103.645)">
            <path d="M725.28,718.815C713.748,732.607 729.715,782.181 707.175,799.167C701.173,803.69 669.555,819.903 677.586,826.914C685.617,833.924 731.434,841.329 755.361,841.228C777.848,841.133 815.875,833.81 821.15,826.308C826.426,818.805 792.738,810.26 787.012,796.212C779.548,777.896 786.652,729.311 776.363,716.411C766.074,703.512 736.214,705.737 725.28,718.815Z" style="fill:url(#_Linear1);stroke-width:1.15px;stroke:rgb(255,210,210);"/>
        </g>
        <g transform="matrix(0.894214,0,0,1,84.0715,-42.8553)">
            <ellipse cx="739.857" cy="541.443" rx="162.039" ry="200.027" style="fill:url(#_Radial2);stroke-width:1.39px;stroke:rgb(244,193,193);"/>
        </g>
        <g transform="matrix(1.00869,0,0,0.820453,2.52375,100.955)">
            <path d="M660.185,801.032C636.846,802.433 579.672,811.427 562.964,827.313C546.271,843.185 537.38,891.674 559.935,896.349C589.902,902.559 668.794,914.034 743.888,913.914C809.372,913.809 871.706,902.948 899.554,897.07C922.174,892.295 917.543,853.054 904.828,829.126C894.792,810.239 838.274,801.97 815.613,800.984C798.375,800.234 785.904,820.496 768.864,823.209C750.095,826.197 721.115,822.607 703.002,818.911C687.848,815.819 675.624,800.106 660.185,801.032Z" style="fill:url(#_Radial3);stroke-width:0.83px;stroke:rgb(145,4,0);"/>
        </g>
        <path d="M617.531,355.872C621.551,346.997 643.399,315.57 671.743,297.303C689.778,285.679 719.689,280.574 751.522,280.367C778.19,280.193 807.909,288.006 820.072,292.92C861.874,309.81 880.065,347.471 883.303,354.723C904.502,402.208 919.704,496.697 893.038,532.137C883.802,475.146 885.939,510.295 837.971,439.093C848.161,535.295 663.15,520.56 647.37,516.125C631.461,511.654 692.415,497.371 670.258,443.891C654.426,483.547 632.911,457.141 616.013,483.026C587.2,527.161 597.008,512.339 583.249,539.17C574.679,489.624 596.576,402.137 617.531,355.872Z" style="fill:url(#_Radial4);stroke-width:1.39px;stroke:rgb(145,0,0);"/>
    </g>
    <defs>
        <linearGradient id="_Linear1" x1="0" y1="0" x2="1" y2="0" gradientUnits="userSpaceOnUse" gradientTransform="matrix(145.421,0,0,133.435,676.288,774.512)"><stop offset="0%" style="stop-color:rgb(255,229,229);stop-opacity:1"/><stop offset="49%" style="stop-color:rgb(255,210,210);stop-opacity:1"/><stop offset="49%" style="stop-color:rgb(255,210,210);stop-opacity:1"/><stop offset="74%" style="stop-color:rgb(255,217,217);stop-opacity:1"/><stop offset="100%" style="stop-color:rgb(255,219,219);stop-opacity:1"/></linearGradient>
        <radialGradient id="_Radial2" cx="0" cy="0" r="1" gradientUnits="userSpaceOnUse" gradientTransform="matrix(12.6552,155.024,-239.324,15.6221,734.28,524.345)"><stop offset="0%" style="stop-color:rgb(255,230,230);stop-opacity:1"/><stop offset="56%" style="stop-color:rgb(254,225,225);stop-opacity:1"/><stop offset="100%" style="stop-color:rgb(250,206,206);stop-opacity:1"/></radialGradient>
        <radialGradient id="_Radial3" cx="0" cy="0" r="1" gradientUnits="userSpaceOnUse" gradientTransform="matrix(180.465,-48.1923,9.75861,55.2342,736.636,889.493)"><stop offset="0%" style="stop-color:rgb(146,9,0);stop-opacity:1"/><stop offset="56%" style="stop-color:rgb(129,8,0);stop-opacity:1"/><stop offset="100%" style="stop-color:rgb(63,2,0);stop-opacity:1"/></radialGradient>
        <radialGradient id="_Radial4" cx="0" cy="0" r="1" gradientUnits="userSpaceOnUse" gradientTransform="matrix(146.01,79.433,-68.1497,125.269,725.053,360.381)"><stop offset="0%" style="stop-color:rgb(255,46,46);stop-opacity:1"/><stop offset="42%" style="stop-color:rgb(229,32,32);stop-opacity:1"/><stop offset="100%" style="stop-color:rgb(173,0,0);stop-opacity:1"/></radialGradient>
    </defs>
</svg>
